<svg width="324" height="143" viewBox="0 0 324 143" fill="none" xmlns="http://www.w3.org/2000/svg">
<path d="M36 142H1V36H36V142Z" fill="white" stroke="white"/>
<path d="M36 1V36H71V1H36Z" fill="white" stroke="white"/>
<path d="M107 36H71V142H107V36Z" fill="white" stroke="white"/>
<path d="M176.5 106.5H107V142H176.5V106.5Z" fill="white"/>
<path d="M176.5 1H142.5V36H176.5V1Z" fill="white"/>
<path d="M176.5 106.5H107V142H176.5V106.5Z" stroke="white"/>
<path d="M176.5 1H142.5V36H176.5V1Z" stroke="white"/>
<path d="M70.5 71L36 71L35.5 106.5H70.5V71Z" fill="white" stroke="white"/>
<path d="M122.52 93L127.56 63.075C128.064 60.093 128.82 57.594 129.828 55.578C130.878 53.562 132.222 51.924 133.86 50.664C135.54 49.404 137.535 48.501 139.845 47.955C142.197 47.409 144.927 47.136 148.035 47.136C149.715 47.136 151.458 47.241 153.264 47.451C155.112 47.619 156.876 47.892 158.556 48.27L158.682 49.026C158.514 49.824 158.388 50.853 158.304 52.113C158.262 53.373 158.241 54.654 158.241 55.956C158.241 57.216 158.241 58.266 158.241 59.106V93H149.232V58.35C149.232 57.258 149.253 56.271 149.295 55.389C149.379 54.465 149.505 53.625 149.673 52.869L150.933 55.2C150.429 55.032 149.778 54.927 148.98 54.885C148.224 54.801 147.468 54.759 146.712 54.759C144.402 54.759 142.554 55.074 141.168 55.704C139.824 56.292 138.795 57.216 138.081 58.476C137.367 59.736 136.842 61.332 136.506 63.264L131.592 93H122.52ZM129.828 80.463V73.029H153.264V80.463H129.828ZM168.975 93V47.64H177.921V85.188H196.128V93H168.975ZM208.404 79.896V72.462H218.547C220.815 72.462 222.663 72 224.091 71.076C225.519 70.11 226.548 68.85 227.178 67.296C227.85 65.742 228.186 64.02 228.186 62.13C228.186 59.652 227.493 57.888 226.107 56.838C224.763 55.788 222.978 55.263 220.752 55.263H208.404V47.64H220.815C226.023 47.64 230.055 48.879 232.911 51.357C235.767 53.793 237.195 57.321 237.195 61.941C237.195 64.293 236.817 66.561 236.061 68.745C235.305 70.887 234.171 72.798 232.659 74.478C231.147 76.158 229.236 77.481 226.926 78.447C224.616 79.413 221.886 79.896 218.736 79.896H208.404ZM203.49 93V47.64H212.436V93H203.49ZM239.661 93L244.701 63.075C245.205 60.093 245.961 57.594 246.969 55.578C248.019 53.562 249.363 51.924 251.001 50.664C252.681 49.404 254.676 48.501 256.986 47.955C259.338 47.409 262.068 47.136 265.176 47.136C266.856 47.136 268.599 47.241 270.405 47.451C272.253 47.619 274.017 47.892 275.697 48.27L275.823 49.026C275.655 49.824 275.529 50.853 275.445 52.113C275.403 53.373 275.382 54.654 275.382 55.956C275.382 57.216 275.382 58.266 275.382 59.106V93H266.373V58.35C266.373 57.258 266.394 56.271 266.436 55.389C266.52 54.465 266.646 53.625 266.814 52.869L268.074 55.2C267.57 55.032 266.919 54.927 266.121 54.885C265.365 54.801 264.609 54.759 263.853 54.759C261.543 54.759 259.695 55.074 258.309 55.704C256.965 56.292 255.936 57.216 255.222 58.476C254.508 59.736 253.983 61.332 253.647 63.264L248.733 93H239.661ZM246.969 80.463V73.029H270.405V80.463H246.969ZM284.478 83.172H285.108C286.116 83.718 287.313 84.222 288.699 84.684C290.085 85.146 291.597 85.524 293.235 85.818C294.915 86.07 296.637 86.196 298.401 86.196C300.333 86.196 301.992 86.049 303.378 85.755C304.764 85.419 305.835 84.894 306.591 84.18C307.347 83.424 307.725 82.416 307.725 81.156C307.725 79.602 307.242 78.468 306.276 77.754C305.31 77.04 303.735 76.494 301.551 76.116L296.763 75.297C294.075 74.877 291.744 74.142 289.77 73.092C287.796 72 286.263 70.551 285.171 68.745C284.121 66.897 283.596 64.65 283.596 62.004C283.596 58.728 284.352 55.977 285.864 53.751C287.418 51.483 289.707 49.782 292.731 48.648C295.755 47.472 299.472 46.884 303.882 46.884C305.898 46.884 307.851 47.073 309.741 47.451C311.673 47.787 313.248 48.228 314.466 48.774V56.649H313.899C312.723 56.103 311.232 55.599 309.426 55.137C307.662 54.675 305.625 54.444 303.315 54.444C301.131 54.444 299.199 54.696 297.519 55.2C295.881 55.662 294.6 56.418 293.676 57.468C292.794 58.518 292.353 59.883 292.353 61.563C292.353 63.663 292.962 65.133 294.18 65.973C295.398 66.813 297.225 67.464 299.661 67.926L304.323 68.682C306.633 69.06 308.712 69.732 310.56 70.698C312.408 71.622 313.857 72.924 314.907 74.604C315.999 76.242 316.545 78.342 316.545 80.904C316.545 83.172 316.083 85.125 315.159 86.763C314.277 88.401 313.017 89.745 311.379 90.795C309.741 91.803 307.809 92.538 305.583 93C303.399 93.504 301.005 93.756 298.401 93.756C296.553 93.756 294.768 93.63 293.046 93.378C291.366 93.168 289.77 92.895 288.258 92.559C286.788 92.181 285.528 91.782 284.478 91.362V83.172Z" fill="white"/>
<path d="M201.411 133.576L202.822 131.335C203.542 131.922 204.261 132.409 204.98 132.796C205.7 133.183 206.43 133.471 207.172 133.659C207.924 133.847 208.688 133.941 209.463 133.941C210.592 133.941 211.577 133.753 212.418 133.377C213.27 133.001 213.934 132.48 214.41 131.816C214.886 131.141 215.124 130.367 215.124 129.492C215.124 128.54 214.853 127.755 214.311 127.135C213.779 126.504 213.088 125.967 212.235 125.524C211.383 125.082 210.476 124.661 209.513 124.263C208.705 123.92 207.902 123.554 207.105 123.167C206.309 122.78 205.584 122.331 204.931 121.822C204.289 121.302 203.774 120.677 203.387 119.946C202.999 119.216 202.806 118.336 202.806 117.307C202.806 115.99 203.138 114.827 203.802 113.82C204.466 112.813 205.384 112.027 206.558 111.463C207.742 110.898 209.103 110.616 210.642 110.616C211.682 110.616 212.728 110.755 213.779 111.031C214.831 111.297 215.849 111.69 216.834 112.21L215.639 114.601C214.864 114.147 214.05 113.798 213.198 113.555C212.357 113.311 211.527 113.189 210.708 113.189C209.734 113.189 208.876 113.355 208.135 113.688C207.404 114.008 206.829 114.462 206.408 115.049C205.999 115.624 205.794 116.299 205.794 117.074C205.794 117.938 206.043 118.662 206.541 119.249C207.05 119.836 207.703 120.345 208.5 120.776C209.308 121.197 210.16 121.606 211.057 122.005C211.909 122.381 212.75 122.78 213.58 123.2C214.421 123.61 215.179 124.097 215.854 124.661C216.541 125.215 217.089 125.879 217.498 126.653C217.908 127.428 218.112 128.363 218.112 129.459C218.112 130.865 217.758 132.099 217.05 133.161C216.341 134.213 215.345 135.032 214.062 135.618C212.789 136.205 211.295 136.498 209.579 136.498C208.074 136.498 206.641 136.255 205.279 135.768C203.918 135.281 202.629 134.55 201.411 133.576ZM234.122 135.602C233.026 136.089 231.958 136.332 230.917 136.332C229.921 136.332 229.047 136.116 228.294 135.685C227.542 135.242 226.955 134.628 226.535 133.842C226.114 133.045 225.904 132.121 225.904 131.069V121.839H222.998V119.398H226.037V115.248H228.626V119.398H233.59V121.839H228.626V130.571C228.626 131.567 228.892 132.37 229.423 132.979C229.966 133.587 230.674 133.892 231.548 133.892C232.257 133.892 232.965 133.681 233.673 133.261L234.122 135.602ZM256.041 136H253.65L253.551 133.311C252.942 134.285 252.14 135.032 251.143 135.552C250.158 136.072 248.991 136.332 247.641 136.332C245.438 136.332 243.695 135.668 242.411 134.34C241.138 133.001 240.502 131.174 240.502 128.861V119.398H243.224V128.662C243.224 130.234 243.667 131.49 244.553 132.431C245.449 133.371 246.639 133.842 248.122 133.842C249.671 133.842 250.922 133.333 251.874 132.314C252.837 131.296 253.318 129.968 253.318 128.33V119.398H256.041V136ZM280.451 136H278.027L277.877 133.576C277.114 134.428 276.184 135.104 275.088 135.602C273.993 136.089 272.792 136.332 271.486 136.332C269.859 136.332 268.398 135.956 267.103 135.203C265.808 134.451 264.784 133.421 264.032 132.115C263.29 130.809 262.919 129.337 262.919 127.699C262.919 126.05 263.29 124.578 264.032 123.283C264.784 121.977 265.808 120.948 267.103 120.195C268.398 119.443 269.859 119.066 271.486 119.066C272.747 119.066 273.909 119.293 274.972 119.747C276.046 120.201 276.964 120.832 277.728 121.64V111.098H280.451V136ZM271.735 133.875C272.841 133.875 273.849 133.62 274.756 133.111C275.664 132.591 276.383 131.888 276.914 131.003C277.457 130.106 277.728 129.094 277.728 127.965V127.4C277.728 126.271 277.457 125.264 276.914 124.379C276.383 123.482 275.664 122.78 274.756 122.271C273.849 121.761 272.841 121.507 271.735 121.507C270.584 121.507 269.554 121.778 268.647 122.32C267.739 122.863 267.02 123.599 266.489 124.528C265.968 125.458 265.708 126.509 265.708 127.683C265.708 128.856 265.968 129.913 266.489 130.854C267.02 131.783 267.739 132.519 268.647 133.062C269.554 133.604 270.584 133.875 271.735 133.875ZM290.085 114.152C289.62 114.152 289.227 113.992 288.906 113.671C288.596 113.339 288.441 112.94 288.441 112.476C288.441 112.022 288.596 111.634 288.906 111.313C289.227 110.993 289.62 110.832 290.085 110.832C290.561 110.832 290.959 110.993 291.28 111.313C291.601 111.634 291.761 112.022 291.761 112.476C291.761 112.94 291.601 113.339 291.28 113.671C290.959 113.992 290.561 114.152 290.085 114.152ZM291.446 136H288.723V119.398H291.446V136ZM307.123 136.332C305.474 136.332 303.991 135.956 302.674 135.203C301.357 134.451 300.317 133.427 299.553 132.132C298.8 130.826 298.424 129.348 298.424 127.699C298.424 126.061 298.8 124.595 299.553 123.3C300.317 121.994 301.357 120.965 302.674 120.212C303.991 119.448 305.474 119.066 307.123 119.066C308.772 119.066 310.25 119.448 311.556 120.212C312.862 120.965 313.891 121.994 314.644 123.3C315.396 124.595 315.773 126.061 315.773 127.699C315.773 129.348 315.396 130.826 314.644 132.132C313.891 133.427 312.862 134.451 311.556 135.203C310.25 135.956 308.772 136.332 307.123 136.332ZM307.107 133.875C308.224 133.875 309.226 133.604 310.112 133.062C310.997 132.519 311.694 131.783 312.203 130.854C312.724 129.924 312.984 128.872 312.984 127.699C312.984 126.526 312.724 125.475 312.203 124.545C311.694 123.615 310.997 122.879 310.112 122.337C309.226 121.795 308.224 121.523 307.107 121.523C305.989 121.523 304.982 121.795 304.085 122.337C303.2 122.879 302.497 123.615 301.977 124.545C301.468 125.475 301.213 126.526 301.213 127.699C301.213 128.872 301.468 129.924 301.977 130.854C302.497 131.783 303.2 132.519 304.085 133.062C304.982 133.604 305.989 133.875 307.107 133.875Z" fill="white"/>
</svg>
